<?xml version="1.0" standalone="no"?>
<!DOCTYPE svg PUBLIC "-//W3C//DTD SVG 20010904//EN"
 "http://www.w3.org/TR/2001/REC-SVG-20010904/DTD/svg10.dtd">
<svg version="1.0" xmlns="http://www.w3.org/2000/svg"
 width="180.000000pt" height="180.000000pt" viewBox="0 0 180.000000 180.000000"
 preserveAspectRatio="xMidYMid meet">
<metadata>
Created by potrace 1.11, written by Peter Selinger 2001-2013
</metadata>
<g transform="translate(0.000000,180.000000) scale(0.100000,-0.100000)"
fill="#000000" stroke="none">
<path d="M952 1440 c-23 -10 -45 -27 -48 -37 -3 -10 -12 -34 -21 -54 -8 -20
-16 -53 -18 -74 -2 -21 -9 -43 -14 -48 -14 -14 -14 -47 0 -47 5 0 8 -4 4 -9
-3 -6 0 -13 7 -18 7 -4 13 -14 14 -20 1 -7 2 -21 3 -32 0 -10 14 -24 30 -31
20 -8 30 -20 33 -40 4 -24 -3 -37 -42 -73 -29 -28 -50 -59 -60 -87 -7 -25 -15
-48 -17 -52 -6 -12 -145 63 -140 76 34 97 39 116 33 132 -7 18 -8 17 -20 -5
-13 -23 -13 -23 -29 17 -12 31 -21 39 -39 38 -18 -1 -24 -9 -30 -41 -14 -81
-9 -152 13 -190 13 -21 18 -40 13 -45 -15 -14 -51 23 -59 61 -9 41 -46 119
-56 119 -15 0 -19 -19 -9 -44 5 -14 7 -26 4 -26 -12 0 -82 40 -94 54 -12 15
-14 15 -26 -3 -11 -15 -12 -30 -3 -69 9 -46 15 -53 64 -83 58 -35 71 -60 50
-93 -14 -21 -10 -26 97 -115 100 -83 116 -92 146 -89 30 4 33 2 27 -19 -3 -13
-8 -43 -12 -68 l-6 -45 231 0 231 0 15 48 c7 27 19 75 26 108 7 32 19 73 28
89 53 104 16 264 -85 359 -26 25 -57 62 -67 81 l-19 35 32 43 c50 66 64 104
59 165 -6 64 -29 99 -88 130 -54 27 -101 28 -158 2z"/>
</g>
</svg>
